<svg height="64" viewBox="0 0 64 64" width="64" xmlns="http://www.w3.org/2000/svg"><g fill-rule="evenodd"><path d="m44.3389 24h-26.678l13.339 11.671z"/><path d="m31.6582 37.7529c-.188.165-.423.247-.658.247-.236 0-.47-.082-.658-.247l-14.342-12.549v18.796h30v-18.796z"/><path d="m48 45c0 .553-.447 1-1 1h-32c-.553 0-1-.447-1-1v-22c0-.05.021-.092.028-.14.01-.071.017-.141.042-.21.026-.068.067-.125.107-.185.025-.04.038-.086.07-.123.008-.009.019-.012.026-.02.049-.053.111-.09.17-.131.05-.034.094-.075.147-.099.049-.022.102-.027.154-.04.075-.021.149-.044.226-.046.01 0 .019-.006.03-.006h32c.011 0 .02.006.03.006.076.002.149.025.223.045.053.014.108.019.157.042.053.023.095.063.144.096.06.041.123.079.173.133.007.008.018.011.026.02.032.037.044.083.07.123.039.06.081.117.107.185.025.069.032.139.042.21.007.048.028.09.028.14zm-17-39c-14.888 0-27 12.112-27 27s12.112 27 27 27 27-12.112 27-27-12.112-27-27-27z"/></g></svg>